<?xml version="1.0" standalone="no"?>
<!DOCTYPE svg PUBLIC "-//W3C//DTD SVG 20010904//EN"
 "http://www.w3.org/TR/2001/REC-SVG-20010904/DTD/svg10.dtd">
<svg version="1.0" xmlns="http://www.w3.org/2000/svg"
 width="1350.000000pt" height="1250.000000pt" viewBox="0 0 1350.000000 1250.000000"
 preserveAspectRatio="xMidYMid meet">
<g transform="translate(0.000000,1450.000000) scale(0.100000,-0.100000)"
fill="#0d0c64" stroke="none">
<path d="M6540 14200 c-63 -4 -120 -8 -127 -9 -28 -3 -32 -40 -24 -233 5 -115
13 -204 20 -217 11 -19 19 -22 64 -19 l52 3 5 72 c3 39 8 74 11 78 4 3 22 6
40 6 19 0 46 3 62 5 25 5 27 9 27 54 0 56 -6 60 -86 60 l-55 0 3 43 3 42 65 2
c36 2 80 5 98 8 30 6 32 9 32 45 0 41 -27 72 -60 68 -8 -1 -67 -5 -130 -8z"/>
<path d="M7071 14186 c-9 -10 -15 -49 -16 -109 -2 -50 -6 -145 -10 -210 -9
-136 -4 -147 59 -147 54 0 66 13 66 72 0 81 57 113 121 68 25 -19 28 -27 31
-88 l3 -67 65 0 65 0 3 96 c3 93 2 96 -28 134 -34 43 -34 43 -15 69 15 20 19
74 9 113 -11 40 -60 60 -164 67 -52 4 -113 10 -135 13 -30 4 -44 1 -54 -11z
m203 -112 c30 -29 13 -104 -22 -104 -34 0 -62 29 -62 65 0 50 50 73 84 39z"/>
<path d="M7833 14109 c-14 -14 -17 -68 -5 -84 4 -6 20 -16 35 -23 29 -12 29
-13 22 -75 -11 -104 -33 -166 -60 -173 -13 -3 -28 -3 -33 0 -14 9 -29 -14 -37
-55 -8 -43 0 -50 65 -60 25 -4 74 -13 110 -20 112 -21 120 -20 136 26 7 22 14
41 14 42 0 2 -19 12 -41 24 l-41 21 5 51 c8 69 24 155 32 167 3 5 21 10 39 10
39 0 55 16 63 63 6 41 6 41 -132 67 -55 10 -113 21 -130 25 -19 4 -35 2 -42
-6z"/>
<path d="M5525 14084 c-38 -7 -99 -18 -134 -23 -87 -13 -97 -25 -82 -93 75
-331 87 -380 100 -388 7 -4 36 -1 65 7 28 8 76 19 106 23 30 5 73 15 95 23 36
12 40 18 43 51 4 45 -13 70 -42 61 -12 -4 -50 -12 -86 -20 -74 -15 -93 -7 -88
34 3 25 16 33 78 45 49 10 61 27 49 69 l-10 39 -59 -7 c-69 -8 -100 0 -100 24
0 27 19 38 75 46 28 4 65 13 83 21 27 11 32 18 32 46 0 37 -15 59 -39 57 -9 0
-47 -7 -86 -15z"/>
<path d="M8496 13948 c-9 -12 -16 -35 -16 -50 0 -16 -4 -36 -10 -46 -14 -25
-67 -184 -86 -259 -15 -61 -15 -65 2 -78 11 -8 35 -17 54 -21 19 -3 66 -17
104 -31 38 -14 88 -28 112 -31 40 -4 44 -3 54 24 19 49 10 68 -40 82 -25 7
-62 18 -84 24 -44 14 -67 48 -46 73 16 19 38 19 97 -1 46 -16 47 -16 65 6 31
39 23 67 -24 89 -24 11 -53 22 -66 26 -18 5 -22 13 -20 33 4 36 41 40 113 13
78 -29 103 -28 111 7 3 15 7 32 9 39 6 19 -41 51 -86 58 -22 4 -78 20 -125 36
-47 16 -89 29 -94 29 -5 0 -16 -10 -24 -22z"/>
<path d="M4852 13916 c-48 -18 -53 -27 -61 -115 -10 -117 -40 -136 -74 -45
-38 102 -35 97 -70 91 -63 -10 -87 -25 -87 -52 0 -14 4 -33 10 -43 10 -18 56
-147 70 -197 5 -16 15 -48 24 -70 8 -22 15 -47 16 -56 0 -9 8 -27 19 -40 l18
-23 47 18 c26 10 49 23 52 30 2 6 -5 38 -16 70 -11 33 -20 65 -20 73 0 19 59
53 93 53 29 0 30 -1 66 -100 20 -53 36 -58 97 -35 45 17 54 36 35 73 -5 9 -20
46 -32 82 -30 87 -44 107 -84 120 -19 6 -36 16 -38 23 -2 7 -2 45 1 85 5 80 3
83 -66 58z"/>
<path d="M9168 13708 c-20 -30 -88 -177 -88 -189 0 -5 -18 -47 -40 -93 -22
-46 -40 -90 -40 -99 0 -19 44 -55 77 -63 30 -8 44 10 78 101 37 98 62 111 89
45 26 -66 32 -145 12 -176 -16 -23 -16 -27 -2 -43 18 -20 74 -40 94 -33 12 4
122 218 122 237 0 5 16 42 36 82 43 86 39 116 -16 127 -60 11 -68 8 -92 -41
-13 -26 -28 -48 -35 -50 -14 -5 -33 31 -63 118 -16 48 -29 70 -50 82 -38 23
-65 21 -82 -5z"/>
<path d="M4045 13600 c-33 -17 -64 -30 -70 -30 -5 0 -20 -8 -33 -18 -22 -17
-23 -18 -12 -142 10 -108 16 -134 45 -195 18 -38 36 -79 39 -90 11 -38 39 -46
86 -23 51 25 56 37 36 77 -23 44 -20 59 17 81 36 22 97 27 97 8 0 -7 11 -26
24 -42 l23 -30 45 22 c52 24 64 46 45 76 -8 12 -17 34 -21 50 -4 16 -24 55
-44 85 -42 65 -180 201 -202 200 -8 0 -42 -13 -75 -29z m86 -142 c41 -45 38
-75 -7 -94 -27 -11 -39 -12 -50 -3 -21 17 -34 77 -24 105 13 34 45 30 81 -8z"/>
<path d="M9865 13354 c-13 -14 -27 -36 -31 -48 -4 -11 -26 -49 -50 -84 -24
-35 -44 -66 -44 -69 0 -3 -21 -36 -46 -74 -25 -38 -44 -77 -42 -86 2 -10 31
-34 66 -53 34 -19 87 -52 117 -73 46 -33 62 -39 110 -40 54 -1 59 1 89 34 17
20 49 64 71 99 109 174 112 221 17 286 -21 13 -62 42 -92 64 -53 39 -113 70
-132 70 -5 0 -20 -12 -33 -26z m147 -173 l41 -38 -22 -44 c-37 -71 -89 -129
-116 -129 -35 0 -75 17 -82 35 -7 19 70 172 99 198 28 24 33 22 80 -22z"/>
<path d="M3445 13287 c-48 -35 -54 -47 -48 -103 11 -108 -12 -130 -93 -84 -30
16 -64 30 -77 30 -26 0 -107 -53 -107 -70 0 -6 17 -36 38 -68 21 -31 76 -114
122 -184 83 -128 103 -145 130 -113 7 8 19 15 26 15 8 0 19 11 25 24 9 20 5
32 -35 90 -25 37 -49 78 -52 92 -6 23 -5 24 37 18 36 -5 48 -2 67 16 13 12 22
33 22 50 0 16 4 31 9 34 15 10 66 -48 98 -111 36 -71 57 -78 108 -31 33 30 35
36 26 61 -6 15 -28 51 -49 80 -21 28 -41 59 -45 69 -3 9 -34 59 -68 112 -68
105 -81 112 -134 73z"/>
<path d="M10474 12882 c-53 -48 -84 -94 -84 -124 0 -27 25 -68 74 -123 41 -44
43 -69 5 -73 -18 -2 -40 11 -82 48 -32 27 -67 50 -78 50 -18 0 -69 -44 -69
-59 0 -3 30 -33 67 -66 157 -142 206 -157 275 -85 21 23 47 58 58 80 18 35 18
42 5 72 -8 18 -32 53 -54 78 -92 102 -14 122 90 23 41 -39 59 -37 89 13 l21
33 -40 36 c-43 39 -110 90 -153 118 -43 27 -78 22 -124 -21z"/>
<path d="M2813 12678 c-40 -33 -73 -66 -73 -73 0 -7 10 -23 23 -36 12 -13 38
-45 57 -71 21 -29 43 -47 55 -48 11 0 41 20 66 44 26 24 57 50 69 59 16 11 21
22 17 39 -7 25 -117 148 -133 148 -5 -1 -42 -28 -81 -62z"/>
<path d="M7849 12486 c-3 -3 -39 -12 -80 -20 -69 -12 -203 -55 -240 -75 -23
-13 -151 -64 -254 -100 -49 -18 -121 -45 -160 -61 -38 -16 -81 -32 -95 -36
-33 -9 -152 -88 -191 -127 -69 -69 -108 -133 -143 -237 -27 -79 -36 -122 -36
-172 0 -152 97 -280 230 -303 25 -4 214 -9 420 -10 228 -1 385 -6 400 -13 37
-15 67 -52 79 -97 7 -27 11 -315 11 -917 0 -591 3 -879 10 -883 19 -11 123 65
208 153 182 187 295 424 325 682 5 47 11 447 14 890 4 826 3 877 -35 1000 -47
153 -193 283 -350 312 -31 5 -68 12 -82 15 -14 2 -28 2 -31 -1z m-158 -570
c113 -47 133 -185 37 -258 -50 -38 -92 -42 -145 -16 -67 34 -93 69 -93 129 0
63 20 102 68 133 43 28 85 32 133 12z"/>
<path d="M2317 12392 c-30 -37 -75 -84 -100 -105 -29 -23 -47 -46 -47 -59 0
-14 53 -74 156 -175 87 -84 160 -152 165 -151 4 2 57 51 118 111 116 112 130
137 93 170 -31 28 -55 19 -117 -43 -62 -63 -87 -73 -105 -41 -16 30 -13 38 30
85 22 24 40 48 40 53 0 12 -46 63 -57 63 -4 0 -33 -22 -63 -50 -41 -36 -58
-46 -67 -38 -26 21 -13 56 42 114 30 33 55 65 55 72 0 18 -50 62 -71 62 -10 0
-41 -29 -72 -68z"/>
<path d="M10892 12335 c-34 -35 -62 -71 -62 -79 0 -19 122 -146 140 -146 15 0
150 130 150 143 0 16 -133 147 -149 147 -9 0 -44 -29 -79 -65z"/>
<path d="M11427 12043 c-20 -16 -100 -77 -179 -136 -79 -60 -147 -115 -151
-123 -6 -10 0 -29 17 -55 37 -54 59 -55 123 -3 23 19 49 34 59 34 21 0 74 -57
74 -80 0 -9 -25 -40 -55 -67 -59 -55 -61 -62 -21 -115 24 -34 49 -35 87 -5 15
12 46 36 69 52 22 17 52 40 67 53 16 12 63 48 105 80 43 31 78 62 78 68 0 18
-61 94 -76 94 -8 0 -37 -18 -65 -40 -28 -22 -57 -40 -64 -40 -20 0 -75 62 -75
84 0 13 16 32 41 49 22 16 47 39 55 52 14 21 13 27 -16 74 -18 28 -33 51 -34
51 -2 0 -19 -12 -39 -27z"/>
<path d="M1868 11869 c-15 -11 -50 -52 -79 -92 -29 -40 -68 -89 -86 -110 -18
-20 -33 -42 -33 -48 0 -15 45 -54 135 -117 102 -72 93 -65 140 -104 77 -63
107 -72 126 -35 15 27 81 111 92 115 11 5 65 114 67 137 1 11 2 27 1 36 -2 24
-58 91 -94 113 -18 11 -52 36 -77 57 -88 72 -142 85 -192 48z m119 -161 c21
-18 47 -38 57 -44 11 -6 29 -22 40 -37 16 -22 18 -31 8 -51 -6 -14 -23 -33
-37 -42 -32 -21 -32 -21 -172 78 -40 28 -43 63 -8 101 34 36 66 34 112 -5z"/>
<path d="M11899 11346 c-3 -3 -39 -10 -80 -16 -87 -12 -129 -26 -184 -61 -22
-13 -57 -33 -78 -44 -51 -27 -55 -47 -17 -95 17 -22 33 -40 36 -40 2 0 22 10
45 22 51 26 67 19 94 -47 l20 -47 -26 -22 c-14 -11 -35 -26 -45 -33 -18 -11
-18 -13 7 -60 14 -26 34 -49 43 -51 21 -4 180 93 215 132 14 16 42 46 61 66
19 20 44 52 54 72 19 35 19 38 2 82 -10 26 -32 68 -49 94 -25 36 -39 48 -62
50 -17 2 -33 1 -36 -2z m2 -136 c10 -6 19 -18 19 -26 0 -20 -60 -94 -75 -94
-14 0 -65 63 -65 79 0 14 39 34 98 50 2 1 12 -4 23 -9z"/>
<path d="M1445 11232 c-31 -19 -105 -103 -105 -120 0 -5 -6 -22 -14 -38 -8
-16 -17 -52 -21 -79 -6 -47 -4 -53 27 -87 18 -20 58 -50 88 -66 30 -16 71 -38
90 -50 19 -12 56 -29 82 -38 42 -13 50 -14 76 0 62 32 147 158 152 228 8 93
-16 127 -132 183 -40 19 -86 44 -103 54 -47 30 -104 35 -140 13z m105 -144
c66 -42 75 -47 90 -54 29 -13 60 -48 60 -66 0 -10 -11 -31 -24 -45 -33 -36
-73 -33 -139 11 -30 20 -59 36 -64 36 -6 0 -18 11 -27 25 -14 22 -15 29 -2 59
13 32 39 55 61 56 6 0 26 -10 45 -22z"/>
<path d="M6935 11030 c-3 -6 -5 -64 -4 -130 2 -68 -1 -124 -7 -130 -6 -6 -572
-11 -1554 -13 -1695 -3 -1554 2 -1673 -59 -48 -24 -149 -123 -172 -168 -40
-77 -55 -227 -30 -297 51 -145 113 -218 234 -276 l66 -32 210 -3 c240 -3 261
2 302 75 20 34 21 44 12 79 -6 21 -19 46 -28 55 -42 40 -64 44 -252 49 -152 4
-190 8 -205 21 -11 9 -27 19 -37 22 -22 8 -56 82 -57 122 0 42 32 90 79 120
l41 25 274 0 275 0 39 -52 c21 -29 60 -89 86 -133 27 -43 63 -97 81 -120 18
-22 38 -51 45 -65 13 -25 137 -212 190 -285 68 -95 88 -175 53 -210 -13 -13
-28 -16 -67 -12 -64 6 -120 -14 -163 -59 l-33 -34 0 -910 0 -910 33 -36 c26
-29 44 -38 83 -45 74 -12 572 -11 617 2 21 5 52 23 70 39 l32 28 5 543 5 544
83 21 c45 11 88 26 94 32 7 7 19 12 28 12 20 0 177 80 245 126 53 35 196 182
240 248 15 22 40 66 56 100 l29 61 100 40 c56 22 113 44 128 49 54 17 108 38
135 52 16 8 33 14 38 14 9 0 48 16 124 50 102 46 132 50 144 18 4 -13 11 -84
13 -158 6 -148 12 -172 81 -308 67 -133 167 -228 317 -302 114 -55 175 -68
297 -64 56 3 112 0 127 -6 25 -9 26 -13 26 -85 0 -60 5 -84 22 -115 41 -70
113 -90 182 -50 56 34 66 74 66 265 l0 165 -34 37 c-47 53 -100 63 -323 63
-100 0 -188 3 -197 6 -14 6 -16 102 -16 988 0 750 -3 985 -12 994 -15 15 -534
17 -543 2z"/>
<path d="M12225 10738 c-16 -6 -38 -15 -48 -20 -10 -5 -45 -22 -77 -39 -52
-26 -188 -149 -212 -192 -4 -9 2 -34 16 -63 13 -27 27 -60 31 -74 17 -56 28
-60 166 -60 74 0 130 4 134 10 3 6 15 10 25 10 11 0 46 13 77 29 32 16 66 32
76 35 9 3 17 13 17 22 0 26 -32 92 -46 98 -12 4 -103 -27 -159 -55 -11 -5 -56
-10 -100 -12 -67 -2 -80 1 -83 15 -6 31 64 94 136 123 37 15 72 30 77 35 6 4
22 10 38 14 33 8 34 27 7 90 -22 48 -26 50 -75 34z"/>
<path d="M1091 10589 c-5 -13 -21 -52 -35 -85 -14 -34 -29 -82 -32 -107 -15
-105 15 -134 206 -203 110 -40 147 -42 184 -13 29 23 76 91 76 110 0 7 12 37
26 67 19 40 24 60 17 71 -11 18 -80 44 -93 36 -5 -3 -17 -32 -26 -65 -25 -89
-57 -104 -154 -70 -98 35 -126 62 -110 105 5 11 18 44 30 74 21 52 21 54 3 72
-10 10 -33 21 -50 25 -28 5 -34 3 -42 -17z"/>
<path d="M12440 10003 c-41 -13 -109 -35 -150 -49 -41 -15 -96 -31 -122 -36
-30 -7 -48 -16 -50 -27 -3 -17 23 -130 40 -171 6 -14 18 -51 27 -82 8 -31 19
-59 23 -62 12 -7 86 20 90 33 2 7 -6 38 -18 70 -12 32 -20 74 -18 92 2 28 8
35 29 37 31 4 42 -9 59 -71 15 -55 44 -70 85 -43 29 19 30 27 12 87 -16 53
-12 76 14 84 28 9 35 1 60 -73 12 -37 28 -79 35 -94 14 -26 15 -27 51 -14 45
15 54 48 29 105 -8 20 -25 72 -37 115 -38 143 -34 140 -159 99z"/>
<path d="M762 9588 c-11 -14 -27 -68 -43 -153 -5 -27 -14 -72 -19 -98 -20
-101 -6 -133 58 -125 22 2 28 10 37 47 17 72 21 72 190 21 17 -5 62 -12 100
-16 84 -7 94 0 97 71 3 46 1 49 -27 58 -16 5 -55 13 -85 17 -81 12 -166 35
-194 54 -23 14 -25 21 -19 65 6 53 4 56 -48 66 -24 4 -39 2 -47 -7z"/>
<path d="M6554 9158 c-72 -31 -76 -35 -142 -142 -36 -58 -149 -180 -236 -254
-75 -63 -129 -98 -230 -148 -72 -36 -137 -70 -143 -76 -10 -8 -13 -103 -13
-412 0 -448 0 -450 70 -491 33 -19 51 -20 340 -20 168 0 317 3 332 8 15 4 43
28 63 54 l35 46 0 539 c0 336 4 546 10 558 5 10 39 33 76 50 36 18 68 38 70
45 3 7 -6 31 -20 54 -14 22 -26 45 -26 51 0 6 -9 28 -20 48 -10 20 -27 56 -37
80 -21 51 -32 52 -129 10z"/>
<path d="M12700 8970 c-25 -5 -79 -14 -120 -20 -41 -6 -104 -16 -140 -21 -86
-14 -94 -21 -86 -83 3 -27 8 -51 12 -55 3 -3 40 -6 82 -6 l76 0 11 -50 c13
-65 20 -75 54 -75 51 0 66 21 66 92 l0 63 32 3 c38 4 48 -11 58 -88 10 -85 13
-90 46 -90 53 0 69 15 69 65 0 24 -7 79 -15 122 -9 43 -19 94 -23 113 -6 32
-10 35 -42 37 -19 0 -55 -3 -80 -7z"/>
<path d="M626 8872 c-5 -9 -25 -128 -28 -172 -8 -111 24 -153 124 -164 113
-11 140 9 172 125 19 68 39 90 62 67 14 -13 14 -28 4 -108 -6 -54 -7 -97 -2
-102 5 -5 29 -10 53 -11 l43 -2 14 100 c7 55 11 127 8 159 -4 50 -9 63 -33 82
-24 20 -39 23 -115 24 l-88 0 -20 -40 c-11 -21 -20 -48 -20 -59 0 -39 -32 -91
-56 -91 -34 0 -38 15 -24 97 9 51 10 77 3 84 -15 15 -89 23 -97 11z"/>
<path d="M12819 8316 c-2 -2 -69 -9 -148 -15 -146 -12 -169 -18 -208 -54 -21
-19 -23 -29 -23 -134 0 -127 15 -174 66 -208 25 -16 43 -17 173 -11 80 4 169
11 196 14 l50 7 3 47 c2 26 -2 57 -8 69 -10 18 -18 20 -63 15 -29 -3 -103 -9
-166 -12 -103 -6 -116 -4 -128 12 -17 23 -17 65 1 89 15 21 74 32 216 41 134
8 130 6 130 67 0 29 -5 58 -12 65 -11 11 -69 17 -79 8z"/>
<path d="M687 8161 c-59 -21 -113 -43 -119 -49 -7 -7 -14 -52 -16 -105 -6
-127 -9 -124 197 -198 64 -22 249 -27 269 -7 7 7 12 31 12 54 0 54 -22 78 -63
70 -41 -8 -57 9 -57 59 0 66 6 75 54 75 61 0 68 8 64 76 l-3 59 -115 2 c-109
1 -121 -1 -223 -36z m112 -125 c7 -9 8 -27 3 -52 -7 -33 -12 -40 -36 -42 -41
-5 -85 17 -92 45 -8 30 0 38 46 51 50 14 66 14 79 -2z"/>
<path d="M12475 7550 c-9 -15 -8 -101 1 -110 5 -5 54 -11 109 -12 84 -3 100
-6 103 -20 7 -34 -113 -118 -168 -118 -48 0 -60 -15 -60 -70 0 -25 5 -51 12
-58 9 -9 73 -12 228 -12 155 0 219 3 228 12 7 7 12 36 12 65 l0 53 -67 0 c-38
0 -73 4 -79 8 -13 8 -1 52 14 52 5 0 39 28 76 63 59 55 66 67 66 100 0 21 -5
39 -12 42 -28 9 -458 13 -463 5z"/>
<path d="M927 7484 c-4 -4 -7 -47 -7 -95 0 -112 -8 -119 -126 -119 -77 0 -84
2 -103 26 -16 21 -21 41 -21 90 0 74 -16 91 -72 76 l-33 -8 0 -90 c1 -105 17
-171 52 -209 l26 -27 146 4 c236 8 254 25 249 228 l-3 125 -50 3 c-28 2 -54 0
-58 -4z"/>
<path d="M123 6760 c-13 -5 -32 -24 -43 -42 -20 -32 -20 -50 -20 -1101 0
-1166 -2 -1125 56 -1147 19 -7 262 -10 733 -8 784 4 791 5 934 71 110 51 180
136 218 262 7 24 13 142 16 298 6 288 -6 387 -57 478 -42 76 -149 156 -232
173 -16 3 -39 8 -53 11 -41 9 -32 44 21 83 78 57 114 178 114 374 -1 194 -43
324 -132 408 -67 65 -105 82 -288 130 -57 16 -1233 25 -1267 10z m1002 -542
c43 -19 65 -76 65 -163 0 -56 -5 -86 -20 -115 -34 -66 -45 -70 -220 -70 -108
0 -160 4 -168 12 -13 13 -18 329 -5 341 12 12 320 8 348 -5z m146 -849 c50
-36 63 -73 63 -184 1 -116 -13 -153 -67 -178 -28 -13 -74 -17 -255 -17 -122
-1 -226 1 -232 5 -15 9 -13 368 2 383 9 9 75 12 236 12 211 0 226 -1 253 -21z"/>
<path d="M2473 6763 c-12 -2 -34 -18 -48 -34 l-25 -31 0 -1066 c0 -666 4
-1080 10 -1102 18 -67 33 -70 343 -70 283 0 328 5 347 40 6 11 10 151 10 345
0 206 4 333 10 346 10 18 24 19 260 19 l250 0 38 -34 37 -34 5 -316 c5 -312 5
-316 28 -338 22 -23 26 -23 317 -26 204 -2 301 1 316 8 46 25 49 54 49 464 0
413 -3 447 -54 552 -43 89 -155 184 -234 199 -78 14 -96 50 -42 81 43 26 86
91 100 154 6 30 14 118 17 195 9 248 -28 385 -136 499 -73 76 -86 83 -251 128
-71 19 -106 21 -700 23 -344 2 -635 1 -647 -2z m987 -588 c49 -31 55 -51 55
-190 0 -98 -3 -114 -24 -148 -13 -21 -34 -45 -46 -53 -49 -32 -288 -30 -320 3
-12 12 -15 49 -15 202 0 132 4 191 12 199 8 8 57 12 155 12 136 0 146 -1 183
-25z"/>
<path d="M5257 6756 c-22 -8 -46 -25 -55 -37 -30 -41 -72 -122 -72 -137 0 -8
-10 -36 -21 -61 -12 -25 -25 -55 -29 -66 -4 -11 -17 -45 -28 -75 -12 -30 -29
-80 -38 -110 -9 -30 -22 -61 -28 -69 -6 -8 -16 -32 -22 -55 -6 -23 -21 -63
-32 -91 -58 -138 -92 -240 -148 -435 -24 -85 -24 -86 -24 -595 0 -280 4 -515
8 -521 4 -5 18 -18 32 -27 21 -15 57 -17 292 -17 285 0 304 3 335 49 15 23 17
57 18 259 1 128 6 237 11 242 5 5 132 10 283 10 219 2 275 -1 282 -12 5 -7 9
-112 9 -233 0 -189 2 -225 18 -255 29 -59 37 -60 352 -58 254 3 289 5 313 21
l27 17 0 531 0 530 -36 112 c-20 62 -40 121 -44 132 -5 11 -17 47 -26 80 -9
33 -20 65 -25 70 -4 6 -20 48 -35 93 -14 45 -30 85 -35 88 -5 3 -9 14 -9 26 0
11 -7 32 -15 46 -15 28 -78 191 -88 227 -8 31 -76 196 -96 235 -11 19 -36 49
-56 65 l-37 30 -471 2 c-384 2 -479 0 -510 -11z m556 -613 c19 -5 46 -58 70
-138 8 -27 38 -121 65 -207 28 -86 48 -166 45 -177 -3 -10 -15 -22 -26 -25
-12 -3 -122 -6 -243 -6 -177 0 -224 3 -233 14 -9 11 -4 38 19 121 17 59 35
117 40 129 5 11 18 55 31 96 12 41 28 89 35 107 8 17 14 38 14 46 0 9 12 25
27 37 23 18 35 20 82 15 31 -4 64 -9 74 -12z"/>
<path d="M7185 6762 c-72 -24 -75 -37 -75 -291 0 -242 7 -276 59 -302 17 -9
87 -15 201 -19 l175 -5 3 -532 c2 -473 0 -533 -14 -547 -13 -13 -44 -16 -189
-16 l-173 0 -31 -31 -31 -31 0 -223 c0 -123 4 -235 10 -249 21 -57 4 -56 786
-56 705 0 717 0 750 20 43 27 46 51 42 312 -4 275 11 258 -223 258 -129 0
-176 3 -190 14 -18 13 -18 38 -19 544 -1 292 2 534 6 537 4 4 85 8 180 9 126
1 180 5 200 15 42 21 50 81 46 328 l-3 213 -28 27 -27 28 -718 2 c-394 1 -726
-2 -737 -5z"/>
<path d="M9174 6761 c-11 -5 -28 -21 -37 -35 -16 -24 -17 -108 -17 -1118 l0
-1093 25 -25 25 -25 278 -3 c172 -2 289 1 305 7 15 6 36 25 47 43 19 32 20 51
20 564 0 459 2 533 15 538 8 3 21 -3 28 -15 8 -11 30 -36 49 -57 19 -20 38
-44 44 -53 5 -9 32 -42 59 -74 89 -104 110 -129 145 -175 19 -25 71 -88 116
-140 45 -52 86 -105 93 -117 7 -14 11 -92 11 -225 0 -173 3 -208 18 -238 29
-59 37 -61 349 -58 l283 3 27 28 28 27 3 1053 c2 578 0 1070 -3 1092 -3 22
-16 54 -29 70 l-24 30 -279 3 c-256 3 -281 2 -312 -16 -59 -32 -62 -55 -61
-426 1 -217 -2 -332 -9 -339 -7 -7 -17 -3 -33 15 -48 52 -104 115 -127 144
-14 16 -88 101 -165 188 -78 88 -181 206 -231 263 -49 56 -112 117 -140 135
l-50 33 -215 2 c-118 1 -224 -2 -236 -6z"/>
<path d="M11530 6763 c-31 -12 -50 -46 -51 -92 0 -25 0 -214 1 -419 1 -481
-12 -435 208 -732 64 -85 147 -197 186 -249 88 -116 146 -193 185 -248 l31
-42 0 -222 c0 -242 5 -266 60 -289 17 -7 126 -10 322 -8 l296 3 26 24 25 24 3
237 3 237 33 34 c17 18 32 37 32 42 0 5 14 26 30 46 17 20 81 105 143 189 62
84 135 183 162 220 28 37 66 92 86 122 20 31 44 61 52 69 22 17 56 127 68 219
12 88 8 768 -4 794 -5 9 -24 24 -43 33 -29 14 -72 15 -308 13 -273 -3 -275 -3
-300 -27 l-25 -24 -3 -336 c-3 -312 -5 -339 -23 -376 -38 -76 -175 -273 -204
-294 -40 -28 -83 -27 -120 5 -36 30 -146 195 -184 276 l-27 57 0 298 c0 343
-5 377 -61 405 -30 16 -66 18 -309 17 -151 0 -282 -3 -290 -6z"/>
<path d="M2221 3914 c-15 -6 -31 -19 -35 -29 -3 -9 -6 -409 -6 -889 0 -738 2
-875 14 -892 14 -18 32 -19 628 -18 546 0 618 2 661 17 128 45 198 103 239
197 22 53 23 64 23 315 0 235 -2 265 -20 314 -35 95 -102 152 -219 187 -52 16
-54 36 -7 80 65 62 81 118 81 294 0 154 -8 193 -58 275 -46 76 -82 100 -202
133 -71 20 -103 22 -573 25 -369 2 -505 0 -526 -9z m829 -431 c29 -27 31 -32
33 -113 2 -96 -12 -132 -61 -152 -32 -12 -230 -17 -254 -5 -16 7 -18 24 -18
146 0 76 3 141 7 144 3 4 64 7 135 7 125 0 128 -1 158 -27z m93 -664 c48 -25
57 -48 57 -154 0 -108 -1 -110 -44 -143 -27 -21 -39 -22 -195 -22 -91 0 -176
3 -188 6 -23 6 -23 9 -23 153 0 101 4 151 12 159 16 16 350 17 381 1z"/>
<path d="M4149 3911 l-24 -19 0 -304 c0 -166 3 -334 7 -371 8 -77 14 -89 131
-246 45 -61 99 -136 120 -165 22 -30 47 -63 58 -74 20 -22 64 -83 106 -147 14
-22 37 -53 49 -68 23 -28 24 -34 24 -211 0 -164 2 -185 18 -199 16 -15 50 -17
275 -17 253 0 256 0 271 22 13 18 16 56 16 203 l0 180 35 39 c19 22 35 45 35
52 0 7 4 14 9 16 5 2 33 37 62 79 62 89 192 264 243 329 20 24 53 78 73 120
l38 75 3 336 c3 322 3 336 -16 360 l-20 24 -235 0 c-217 0 -237 -1 -256 -19
-20 -18 -21 -28 -21 -263 0 -262 -8 -319 -54 -373 -12 -14 -32 -47 -46 -73
-14 -27 -39 -65 -56 -85 -29 -34 -36 -37 -82 -37 -60 0 -55 -5 -152 156 l-70
116 -1 249 c-1 271 -7 313 -50 325 -13 4 -124 7 -245 8 -204 1 -224 -1 -245
-18z"/>
<path d="M6119 3922 c-35 -11 -39 -33 -39 -238 0 -198 1 -203 22 -218 19 -13
58 -16 224 -16 155 0 204 -3 213 -13 7 -10 11 -211 13 -670 2 -522 6 -659 16
-669 19 -19 507 -20 540 -1 l22 13 0 655 c0 581 2 655 16 669 13 14 47 16 219
16 266 0 248 -14 253 193 3 86 1 176 -2 200 -13 83 56 75 -757 79 -399 2 -732
2 -740 0z"/>
<path d="M8097 3917 c-18 -6 -29 -19 -34 -40 -11 -43 0 -1773 10 -1784 5 -4
303 -8 664 -8 l655 0 19 24 c17 21 19 41 19 198 0 215 -4 227 -82 236 -29 4
-200 7 -380 7 -283 0 -329 2 -342 16 -20 20 -23 182 -3 206 16 21 125 30 334
28 89 -1 178 2 198 6 56 10 65 38 65 209 0 172 -10 208 -60 219 -18 3 -144 6
-281 6 -235 0 -249 1 -259 19 -13 25 -13 161 0 181 8 13 66 16 391 20 l381 5
19 24 c17 21 19 41 19 205 0 158 -3 184 -18 204 l-18 23 -635 3 c-350 1 -648
-2 -662 -7z"/>
<path d="M10289 3919 c-75 -8 -191 -44 -231 -72 -88 -61 -143 -143 -172 -256
-23 -89 -23 -406 0 -497 43 -171 116 -235 329 -292 36 -10 111 -22 384 -63
108 -17 131 -34 131 -98 0 -89 16 -85 -432 -91 l-390 -5 -19 -24 c-17 -21 -19
-41 -19 -205 0 -163 2 -183 20 -206 l19 -25 513 1 c581 0 577 0 694 77 73 48
94 68 136 132 46 69 50 92 55 305 6 223 -6 362 -33 407 -23 36 -116 133 -128
133 -5 0 -17 6 -25 13 -25 20 -179 66 -246 73 -33 3 -95 12 -139 20 -43 8 -95
14 -117 14 -21 0 -41 5 -44 10 -3 6 -19 10 -35 10 -50 0 -77 16 -90 55 -14 42
0 89 31 105 10 6 153 10 341 10 304 0 325 1 356 20 l32 20 0 200 c0 184 -1
201 -19 217 -17 14 -66 16 -433 17 -227 1 -438 -2 -469 -5z"/>
</g>
</svg>
